<svg xmlns="http://www.w3.org/2000/svg" viewBox="0 0 600 600" role="img" aria-labelledby="title">
  <title id="title">Ilustração de churrasco na brasa</title>
  <defs>
    <radialGradient id="fire"><stop stop-color="#ff6a00"/><stop offset="1" stop-color="#090807"/></radialGradient>
    <linearGradient id="meat" x2="1" y2="1"><stop stop-color="#e28b58"/><stop offset=".5" stop-color="#8b3821"/><stop offset="1" stop-color="#3b160e"/></linearGradient>
  </defs>
  <rect width="600" height="600" fill="#090807"/>
  <ellipse cx="170" cy="410" rx="190" ry="150" fill="url(#fire)" opacity=".35"/>
  <g transform="rotate(-13 300 300)">
    <path d="M80 337c31-96 132-154 248-130 87 18 154 80 171 154-36 95-132 151-249 127-89-18-154-79-170-151z" fill="url(#meat)" stroke="#321008" stroke-width="9"/>
    <path d="M109 331c37-69 123-106 214-88 67 14 121 56 146 108-42 67-121 101-209 83-70-14-126-54-151-103z" fill="#d47c4d" opacity=".8"/>
    <path d="M133 316c55-42 126-54 194-35 45 12 83 36 112 67-57 38-124 49-191 31-48-13-88-35-115-63z" fill="#f0a06c" opacity=".75"/>
    <path d="M148 303 420 374M126 344l278 73M186 261l224 58" stroke="#542014" stroke-width="12" stroke-linecap="round" opacity=".8"/>
    <path d="M160 296 424 365M138 337l263 69M198 255l207 55" stroke="#ffbd82" stroke-width="3" stroke-linecap="round" opacity=".65"/>
    <path d="M88 336c28-70 90-119 170-133" fill="none" stroke="#f5b28a" stroke-width="16" stroke-linecap="round" opacity=".7"/>
  </g>
  <g fill="#ff3d00" opacity=".8"><circle cx="105" cy="126" r="5"/><circle cx="145" cy="94" r="3"/><circle cx="183" cy="142" r="4"/><circle cx="75" cy="180" r="3"/></g>
</svg>
