<svg xmlns="http://www.w3.org/2000/svg" viewBox="0 0 600 600" role="img" aria-labelledby="title">
  <title id="title">Ilustração de hambúrguer artesanal</title>
  <defs>
    <linearGradient id="bg" x2="0" y2="1"><stop stop-color="#17110e"/><stop offset="1" stop-color="#090807"/></linearGradient>
    <linearGradient id="bun" x2="0" y2="1"><stop stop-color="#f8a338"/><stop offset=".55" stop-color="#c85b16"/><stop offset="1" stop-color="#7b2b0b"/></linearGradient>
    <linearGradient id="meat" x2="0" y2="1"><stop stop-color="#6d2d17"/><stop offset="1" stop-color="#2b120d"/></linearGradient>
    <filter id="shadow"><feGaussianBlur stdDeviation="13"/></filter>
  </defs>
  <rect width="600" height="600" fill="url(#bg)"/>
  <ellipse cx="300" cy="516" rx="220" ry="28" fill="#000" opacity=".65" filter="url(#shadow)"/>
  <path d="M103 398c25-24 65-31 197-31s172 7 197 31l-18 88c-21 42-337 42-358 0z" fill="url(#bun)" stroke="#5b210b" stroke-width="6"/>
  <path d="M109 393c42 12 95 15 191 15s149-3 191-15" fill="none" stroke="#ffb34a" stroke-width="9" opacity=".7"/>
  <path d="M94 363c38-29 68-37 206-37s168 8 206 37c-13 30-56 35-206 35S107 393 94 363z" fill="#79a927" stroke="#2d5d16" stroke-width="6"/>
  <path d="M112 340c60-33 316-33 376 0-20 29-356 29-376 0z" fill="#d94322" stroke="#7e1d13" stroke-width="6"/>
  <path d="M119 315c65-22 297-22 362 0-23 31-339 31-362 0z" fill="#8c2859" stroke="#4f1636" stroke-width="6"/>
  <path d="M104 278c56-39 336-39 392 0l-26 72c-39 31-301 31-340 0z" fill="url(#meat)" stroke="#170a07" stroke-width="8"/>
  <path d="M132 286c80 19 256 19 336 0M143 315c72 17 242 17 314 0" fill="none" stroke="#b95a2d" stroke-width="7" opacity=".65"/>
  <path d="M106 266c58-40 330-40 388 0l-50 64-144-32-144 32z" fill="#f49b19" stroke="#a9480b" stroke-width="6"/>
  <path d="M109 239c46-19 336-19 382 0-26 40-356 40-382 0z" fill="#8d2a12" stroke="#4a1108" stroke-width="7"/>
  <path d="M103 225C118 111 188 65 300 65s182 46 197 160c-44 23-350 23-394 0z" fill="url(#bun)" stroke="#672508" stroke-width="7"/>
  <path d="M151 183c70-58 228-74 310 0" fill="none" stroke="#ffc66a" stroke-width="12" opacity=".45"/>
  <g fill="#ffe0a0"><ellipse cx="222" cy="132" rx="6" ry="3"/><ellipse cx="280" cy="106" rx="6" ry="3"/><ellipse cx="344" cy="118" rx="6" ry="3"/><ellipse cx="393" cy="152" rx="6" ry="3"/></g>
</svg>
